<mxfile host="Electron" agent="Mozilla/5.0 (Windows NT 10.0; Win64; x64) AppleWebKit/537.36 (KHTML, like Gecko) draw.io/24.7.5 Chrome/126.0.6478.183 Electron/31.3.0 Safari/537.36" version="24.7.5">
  <diagram name="第 1 页" id="1XnFlSZsCdxtnfR2chRb">
    <mxGraphModel dx="1036" dy="606" grid="1" gridSize="10" guides="1" tooltips="1" connect="1" arrows="1" fold="1" page="1" pageScale="1" pageWidth="827" pageHeight="1169" math="0" shadow="0">
      <root>
        <mxCell id="0" />
        <mxCell id="1" parent="0" />
        <mxCell id="9iA0qpDQGOu_Q7CoGsK--1" value="&lt;span style=&quot;font-size: 18px;&quot;&gt;框架优化流程&lt;/span&gt;" style="rounded=0;whiteSpace=wrap;html=1;" vertex="1" parent="1">
          <mxGeometry x="50" y="375" width="110" height="30" as="geometry" />
        </mxCell>
        <mxCell id="9iA0qpDQGOu_Q7CoGsK--2" value="" style="shape=curlyBracket;whiteSpace=wrap;html=1;rounded=1;labelPosition=left;verticalLabelPosition=middle;align=right;verticalAlign=middle;" vertex="1" parent="1">
          <mxGeometry x="160" y="270" width="20" height="220" as="geometry" />
        </mxCell>
        <mxCell id="9iA0qpDQGOu_Q7CoGsK--3" value="&lt;span style=&quot;font-size: 18px;&quot;&gt;模型生成&lt;/span&gt;" style="rounded=0;whiteSpace=wrap;html=1;" vertex="1" parent="1">
          <mxGeometry x="180" y="260" width="90" height="30" as="geometry" />
        </mxCell>
        <mxCell id="9iA0qpDQGOu_Q7CoGsK--4" value="" style="shape=flexArrow;endArrow=classic;html=1;rounded=0;exitX=1;exitY=0.5;exitDx=0;exitDy=0;entryX=0;entryY=0.5;entryDx=0;entryDy=0;" edge="1" parent="1" source="9iA0qpDQGOu_Q7CoGsK--3" target="9iA0qpDQGOu_Q7CoGsK--5">
          <mxGeometry width="50" height="50" relative="1" as="geometry">
            <mxPoint x="290" y="270" as="sourcePoint" />
            <mxPoint x="340" y="220" as="targetPoint" />
          </mxGeometry>
        </mxCell>
        <mxCell id="9iA0qpDQGOu_Q7CoGsK--5" value="&lt;font style=&quot;font-size: 16px;&quot;&gt;代码层面优化（前端优化）&lt;/font&gt;" style="rounded=1;whiteSpace=wrap;html=1;" vertex="1" parent="1">
          <mxGeometry x="314" y="260" width="200" height="30" as="geometry" />
        </mxCell>
        <mxCell id="9iA0qpDQGOu_Q7CoGsK--6" value="&lt;span style=&quot;font-size: 18px;&quot;&gt;中间表示&lt;/span&gt;" style="rounded=0;whiteSpace=wrap;html=1;" vertex="1" parent="1">
          <mxGeometry x="180" y="340" width="90" height="30" as="geometry" />
        </mxCell>
        <mxCell id="9iA0qpDQGOu_Q7CoGsK--8" value="&lt;font style=&quot;font-size: 16px;&quot;&gt;前端优化&lt;/font&gt;" style="rounded=1;whiteSpace=wrap;html=1;" vertex="1" parent="1">
          <mxGeometry x="290" y="310" width="120" height="30" as="geometry" />
        </mxCell>
        <mxCell id="9iA0qpDQGOu_Q7CoGsK--9" value="" style="shape=curlyBracket;whiteSpace=wrap;html=1;rounded=1;labelPosition=left;verticalLabelPosition=middle;align=right;verticalAlign=middle;" vertex="1" parent="1">
          <mxGeometry x="270" y="320" width="20" height="70" as="geometry" />
        </mxCell>
        <mxCell id="9iA0qpDQGOu_Q7CoGsK--10" value="&lt;font style=&quot;font-size: 16px;&quot;&gt;后端优化&lt;/font&gt;" style="rounded=1;whiteSpace=wrap;html=1;" vertex="1" parent="1">
          <mxGeometry x="290" y="375" width="120" height="30" as="geometry" />
        </mxCell>
        <mxCell id="9iA0qpDQGOu_Q7CoGsK--12" value="&lt;span style=&quot;font-size: 18px;&quot;&gt;模型部署&lt;/span&gt;" style="rounded=0;whiteSpace=wrap;html=1;" vertex="1" parent="1">
          <mxGeometry x="180" y="470" width="90" height="30" as="geometry" />
        </mxCell>
        <mxCell id="9iA0qpDQGOu_Q7CoGsK--13" value="&lt;font style=&quot;font-size: 16px;&quot;&gt;前端算子优化&lt;/font&gt;" style="rounded=1;whiteSpace=wrap;html=1;" vertex="1" parent="1">
          <mxGeometry x="290" y="425" width="120" height="30" as="geometry" />
        </mxCell>
        <mxCell id="9iA0qpDQGOu_Q7CoGsK--14" value="" style="shape=curlyBracket;whiteSpace=wrap;html=1;rounded=1;labelPosition=left;verticalLabelPosition=middle;align=right;verticalAlign=middle;" vertex="1" parent="1">
          <mxGeometry x="270" y="435" width="20" height="100" as="geometry" />
        </mxCell>
        <mxCell id="9iA0qpDQGOu_Q7CoGsK--15" value="&lt;font style=&quot;font-size: 16px;&quot;&gt;模型推理优化&lt;/font&gt;" style="rounded=1;whiteSpace=wrap;html=1;" vertex="1" parent="1">
          <mxGeometry x="290" y="515" width="120" height="30" as="geometry" />
        </mxCell>
        <mxCell id="9iA0qpDQGOu_Q7CoGsK--16" value="&lt;font style=&quot;font-size: 16px;&quot;&gt;模型压缩&lt;/font&gt;" style="rounded=1;whiteSpace=wrap;html=1;" vertex="1" parent="1">
          <mxGeometry x="290" y="470" width="120" height="30" as="geometry" />
        </mxCell>
      </root>
    </mxGraphModel>
  </diagram>
</mxfile>
